<svg id="icon" xmlns="http://www.w3.org/2000/svg" viewBox="0 0 480.01 121"><title>vedam-logo-2.0</title><path id="logotype" d="M79.57,29.19a25.36,25.36,0,0,1,2.63.25L48.79,113.38a26,26,0,0,1-5.11.5,28.39,28.39,0,0,1-5.26-.5L5,29.44a26.14,26.14,0,0,1,2.8-.25c1.21-.05,2.36-.08,3.46-.08.87,0,2,0,3.29.08a27.18,27.18,0,0,1,3,.25L44,102,71,29.44a25.08,25.08,0,0,1,2.63-.25c1.1-.05,2.08-.08,3-.08S78.47,29.14,79.57,29.19Zm83,20.9a50.14,50.14,0,0,1,2.22,15.23c0,1,0,2.25-.08,3.78s-.14,2.86-.25,4H104.59q0,16.78,7.73,24.69t23.21,7.9a59.53,59.53,0,0,0,11.61-1.07,78,78,0,0,0,10.45-2.88,19.44,19.44,0,0,1,1.31,4.44,45,45,0,0,1,.66,4.77,48.08,48.08,0,0,1-11.19,3.3,80.09,80.09,0,0,1-14,1.15,49.08,49.08,0,0,1-18.68-3.21,33.54,33.54,0,0,1-12.84-9,36.45,36.45,0,0,1-7.41-13.75A61,61,0,0,1,93.06,71.9a64.91,64.91,0,0,1,2.23-17.28A42.32,42.32,0,0,1,102,40.46a31.3,31.3,0,0,1,11.6-9.54,38.22,38.22,0,0,1,17-3.46,36.25,36.25,0,0,1,14.65,2.8A30,30,0,0,1,156,38.08,33.67,33.67,0,0,1,162.61,50.09ZM154,64a38.71,38.71,0,0,0-1.32-10,24.88,24.88,0,0,0-4.11-8.64,21.1,21.1,0,0,0-7.25-6,23.06,23.06,0,0,0-10.7-2.3q-11.52,0-17.94,7.08T104.92,64Zm96.7-58.28a25.83,25.83,0,0,1,2.72.25V111.41a82.64,82.64,0,0,1-12.68,2.8,105.91,105.91,0,0,1-15.8,1.15A64.93,64.93,0,0,1,208,113.22a34.59,34.59,0,0,1-13.66-7.08,34.14,34.14,0,0,1-9.14-13q-3.37-8.07-3.37-19.92a58.33,58.33,0,0,1,3-19.34,40.17,40.17,0,0,1,8.39-14.32,36.55,36.55,0,0,1,13.09-9,44.26,44.26,0,0,1,16.87-3.13,63.77,63.77,0,0,1,10.78.91,54.84,54.84,0,0,1,8.64,2.05V6a26.14,26.14,0,0,1,2.8-.25c1.21,0,2.09-.08,2.64-.08S249.52,5.67,250.67,5.72Zm-8.15,34.91a54.85,54.85,0,0,0-18.92-3.46,31.59,31.59,0,0,0-13.42,2.64,26,26,0,0,0-9.46,7.32A31.54,31.54,0,0,0,195,58.41a52.32,52.32,0,0,0-1.9,14.48q0,17.13,8.15,24.94t23.13,7.82a88.2,88.2,0,0,0,10.37-.58,48,48,0,0,0,7.73-1.4Zm87.14-6.17q7.74,7,7.74,22V111.9q-5.76,1.16-14,2.31a114.27,114.27,0,0,1-15.64,1.15q-15.3,0-24.11-6.09t-8.81-19.75a26.3,26.3,0,0,1,2.55-11.77A24.83,24.83,0,0,1,284.48,69a31.49,31.49,0,0,1,10.87-5.35,50.72,50.72,0,0,1,13.9-1.81q5.92,0,10.21.41t7.08.74v-5.1q0-10.86-5.1-15.88t-15.15-5a73.69,73.69,0,0,0-12,.9,76,76,0,0,0-9.72,2.23,15.81,15.81,0,0,1-1.4-4.28,26.56,26.56,0,0,1-.57-5.27,70.25,70.25,0,0,1,10.53-2.22A88.62,88.62,0,0,1,306,27.46Q321.92,27.46,329.66,34.46Zm-3.12,38.1c-1.87-.22-4.2-.46-7-.74s-5.46-.41-8-.41q-12.35,0-19.09,4.61t-6.75,13.17a16.29,16.29,0,0,0,2,8.72,13.84,13.84,0,0,0,5.35,5,22.68,22.68,0,0,0,7.24,2.31,55.38,55.38,0,0,0,7.91.57,86.35,86.35,0,0,0,9.54-.49c3-.33,5.87-.77,8.73-1.32Zm120.81-45.1a25.34,25.34,0,0,0-8.64,1.4,25.94,25.94,0,0,0-6.83,3.62,30.62,30.62,0,0,0-5.27,5q-2.31,2.8-4.11,5.43a48.58,48.58,0,0,0-3.21-6.25A18.65,18.65,0,0,0,409,28.61a26.41,26.41,0,0,0-8.23-1.15,27.89,27.89,0,0,0-9.14,1.4,26.92,26.92,0,0,0-7.16,3.7A28,28,0,0,0,379,37.83a32.49,32.49,0,0,0-3.78,6.09q0-3.29-.17-7.41t-.49-7.07c-.88-.11-1.7-.19-2.47-.25s-1.59-.08-2.47-.08-1.56,0-2.39.08-1.67.14-2.55.25v83.94a26.14,26.14,0,0,0,2.8.25c1.21.05,2.08.08,2.63.08s1.57,0,2.72-.08a25.83,25.83,0,0,0,2.72-.25V71.24a52.81,52.81,0,0,1,1.72-13.9,36.41,36.41,0,0,1,4.86-11,23.44,23.44,0,0,1,7.41-7.16A18,18,0,0,1,399,36.68a13.07,13.07,0,0,1,11.6,6.09q4,6.09,4,18.76v51.85a25.66,25.66,0,0,0,2.79.25c1.21.05,2.09.08,2.64.08s1.56,0,2.71-.08a25.57,25.57,0,0,0,2.72-.25V64.17a36.76,36.76,0,0,1,1.4-10.29,26.86,26.86,0,0,1,4-8.48,19.64,19.64,0,0,1,6.59-5.76,19.1,19.1,0,0,1,9.21-2.14q8.73,0,13.09,6.42t4.36,19.75v49.71a26.14,26.14,0,0,0,2.8.25c1.21.05,2.08.08,2.63.08s1.57,0,2.72-.08a25.33,25.33,0,0,0,2.71-.25V59.89q0-15.64-6.5-24T447.35,27.46Z"/></svg>