<svg id="icon" xmlns="http://www.w3.org/2000/svg" viewBox="0 0 246 193"><defs><style>.cls-1{fill:#00daad;}.cls-2{fill:#fff;fill-rule:evenodd;}</style></defs><title>vedam-logo-2.0</title><rect id="back" class="cls-1" x="3" y="2.54" width="240" height="187.91" rx="26.64"/><path id="logo" class="cls-2" d="M107.62,142.36H86.44c9.18-6.18,15.56-19.47,21.56-36.88l14.44-41.74c2.62-8.05,9-13.1,15.93-13.1h21.38c-9.19,6-15.19,18.91-21.19,35.75l-15,42.87C120.94,137.12,114.75,142.36,107.62,142.36Zm90.38,0h-8.81a21,21,0,0,1-19.69-14L152.25,78.53c5.25-12.17,10.5-18.72,16.87-20.21ZM48,50.64h9a21,21,0,0,1,19.69,14l17.25,49.79c-5.25,12.17-10.5,18.72-16.88,20.21Z"/></svg>